<svg width="34" height="35" viewBox="0 0 34 35" fill="none" xmlns="http://www.w3.org/2000/svg">
<g id="crown (1) 2" clip-path="url(#clip0_212_212)">
<path id="Vector" d="M30.2891 9.23312C28.7701 9.23312 27.5387 10.5019 27.5387 12.0669C27.5393 12.364 27.5857 12.6591 27.6762 12.9411L25.4456 14.4019C23.977 15.366 22.0406 15.0465 20.9377 13.6581L18.7511 10.9023C19.0991 10.4196 19.2872 9.83445 19.2874 9.23319C19.2874 7.66816 18.056 6.39941 16.537 6.39941C15.018 6.39941 13.7866 7.66816 13.7866 9.23319C13.7868 9.83445 13.975 10.4196 14.3229 10.9023L12.1364 13.6581C11.0336 15.0457 9.09817 15.3652 7.62984 14.4019L5.39801 12.9411C5.48858 12.6591 5.535 12.364 5.53551 12.0669C5.53577 10.5019 4.3046 9.23292 2.78554 9.23265C1.26661 9.23239 0.0349869 10.5009 0.034729 12.066C0.0344712 13.5351 1.12402 14.7608 2.54445 14.8893L4.16994 24.9349C4.22505 25.2765 4.51178 25.527 4.84789 25.5272H28.2263C28.5624 25.527 28.8492 25.2765 28.9043 24.9349L30.5298 14.8893C32.0427 14.7495 33.1592 13.3725 33.0235 11.8137C32.8965 10.3546 31.711 9.23584 30.2891 9.23312Z" fill="#FFC107"/>
<path id="Vector_2" d="M16.5372 28.3607C22.9929 28.3607 28.2263 26.7748 28.2263 24.8185C28.2263 22.8622 22.9929 21.2764 16.5372 21.2764C10.0814 21.2764 4.84796 22.8622 4.84796 24.8185C4.84796 26.7748 10.0814 28.3607 16.5372 28.3607Z" fill="#FFA000"/>
<path id="Vector_3" d="M16.5372 29.0691C10.3859 29.0691 4.16034 27.6098 4.16034 24.8185C4.16034 22.0272 10.3859 20.5679 16.5372 20.5679C22.6884 20.5679 28.914 22.0272 28.914 24.8185C28.914 27.6098 22.6884 29.0691 16.5372 29.0691ZM16.5372 21.9847C9.31457 21.9847 5.53552 23.8266 5.53552 24.8185C5.53552 25.8103 9.31457 27.6523 16.5372 27.6523C23.7597 27.6523 27.5388 25.8103 27.5388 24.8185C27.5388 23.8266 23.7597 21.9847 16.5372 21.9847Z" fill="#FFD54F"/>
</g>
<defs>
<clipPath id="clip0_212_212">
<rect width="33" height="34" fill="white" transform="translate(0.034729 0.734375)"/>
</clipPath>
</defs>
</svg>
