<svg width="27" height="27" viewBox="0 0 27 27" fill="none" xmlns="http://www.w3.org/2000/svg">
<path d="M13.5 26.8818C6.04441 26.8818 0 21.0613 0 13.8818C0 6.70238 6.04441 0.881836 13.5 0.881836C20.9556 0.881836 27 6.70238 27 13.8818C27 21.0613 20.9556 26.8818 13.5 26.8818ZM20.8828 13.1399C20.8827 12.894 20.7812 12.6583 20.6006 12.4844C20.4201 12.3105 20.1752 12.2128 19.9199 12.2127H15.2334V7.69973C15.2332 7.45384 15.1317 7.21807 14.9512 7.0442C14.7706 6.87033 14.5258 6.7726 14.2704 6.77246H12.7296C12.4742 6.7726 12.2294 6.87033 12.0488 7.0442C11.8683 7.21807 11.7668 7.45384 11.7666 7.69973V12.2127H7.08012C6.82477 12.2128 6.57993 12.3105 6.39938 12.4844C6.21882 12.6583 6.11733 12.894 6.11719 13.1399V14.6237C6.11733 14.8696 6.21882 15.1054 6.39938 15.2793C6.57993 15.4531 6.82477 15.5509 7.08012 15.551H11.7666V20.0639C11.7668 20.3098 11.8683 20.5456 12.0488 20.7195C12.2294 20.8933 12.4742 20.9911 12.7296 20.9912H14.2704C14.5258 20.9911 14.7706 20.8933 14.9512 20.7195C15.1317 20.5456 15.2332 20.3098 15.2334 20.0639V15.551H19.9199C20.1752 15.5509 20.4201 15.4531 20.6006 15.2793C20.7812 15.1054 20.8827 14.8696 20.8828 14.6237V13.1399Z" fill="url(#paint0_linear_789_18)"/>
<defs>
<linearGradient id="paint0_linear_789_18" x1="0" y1="13.8818" x2="27" y2="13.8818" gradientUnits="userSpaceOnUse">
<stop stop-color="#FF1EA5"/>
<stop offset="1" stop-color="#FF6B74"/>
</linearGradient>
</defs>
</svg>
