<svg width="19" height="19" viewBox="0 0 19 19" fill="none" xmlns="http://www.w3.org/2000/svg">
<g id="check (9) 2" clip-path="url(#clip0_226_205)">
<path id="Vector" d="M15.8179 3.49718C14.1711 1.85038 11.9815 0.943359 9.65257 0.943359C7.32361 0.943359 5.13403 1.85038 3.48717 3.49718C1.84038 5.14398 0.933411 7.33356 0.933411 9.66252C0.933411 11.9914 1.84038 14.181 3.48717 15.8278C5.13403 17.4747 7.32355 18.3816 9.65251 18.3816C11.9815 18.3816 14.171 17.4746 15.8179 15.8278C17.4646 14.181 18.3716 11.9914 18.3716 9.66252C18.3717 7.33356 17.4647 5.14398 15.8179 3.49718ZM14.5633 7.78041L9.62447 13.2896C9.48644 13.4435 9.288 13.5319 9.08 13.5319H9.07994C8.89948 13.5318 8.72644 13.4658 8.59268 13.3459L4.9104 10.0449C4.6104 9.77599 4.58517 9.31312 4.85409 9.01323L5.65534 8.11941C5.79337 7.96548 5.99182 7.87713 6.19982 7.87713C6.38028 7.87713 6.55332 7.94317 6.68702 8.06304L8.63854 9.81263C8.71036 9.87698 8.80343 9.91239 8.90066 9.91239C9.01301 9.91239 9.11996 9.8649 9.19408 9.78223L12.5813 6.00379C12.7193 5.84986 12.9178 5.76151 13.1258 5.76151C13.3062 5.76151 13.4793 5.82755 13.613 5.94748L14.5068 6.74879C14.807 7.01765 14.8323 7.48047 14.5633 7.78041Z" fill="url(#paint0_linear_226_205)"/>
</g>
<defs>
<linearGradient id="paint0_linear_226_205" x1="10.6027" y1="18.5964" x2="9.96546" y2="1.39777" gradientUnits="userSpaceOnUse">
<stop stop-color="#580AFF"/>
<stop offset="1" stop-color="#5379FF"/>
</linearGradient>
<clipPath id="clip0_226_205">
<rect width="17.4383" height="17.4383" fill="white" transform="translate(0.933411 0.943359)"/>
</clipPath>
</defs>
</svg>
