<svg width="29" height="30" viewBox="0 0 29 30" fill="none" xmlns="http://www.w3.org/2000/svg">
<g id="minus 1" clip-path="url(#clip0_214_377)">
<g id="Layer 2">
<g id="minus">
<path id="Vector" d="M14.5 0.381836C22.5079 0.381836 29 6.87398 29 14.8818C29 22.8897 22.5079 29.3818 14.5 29.3818C6.49215 29.3818 0 22.8897 0 14.8818C0 6.87398 6.49215 0.381836 14.5 0.381836ZM6.57031 15.7094C6.57046 15.9836 6.67948 16.2466 6.87341 16.4405C7.06734 16.6344 7.33031 16.7435 7.60457 16.7436H21.3954C21.6697 16.7435 21.9327 16.6344 22.1266 16.4405C22.3205 16.2466 22.4295 15.9836 22.4297 15.7094V14.0543C22.4295 13.7801 22.3205 13.5171 22.1266 13.3232C21.9327 13.1292 21.6697 13.0202 21.3954 13.0201H7.60457C7.33031 13.0202 7.06734 13.1292 6.87341 13.3232C6.67948 13.5171 6.57046 13.7801 6.57031 14.0543V15.7094Z" fill="url(#paint0_linear_214_377)"/>
</g>
</g>
</g>
<defs>
<linearGradient id="paint0_linear_214_377" x1="29" y1="14.8818" x2="0" y2="14.8818" gradientUnits="userSpaceOnUse">
<stop stop-color="#FF1EA5"/>
<stop offset="1" stop-color="#FF6B74"/>
</linearGradient>
<clipPath id="clip0_214_377">
<rect width="29" height="29" fill="white" transform="matrix(-1 0 0 1 29 0.381836)"/>
</clipPath>
</defs>
</svg>
